<svg width="40" height="15" viewBox="0 0 40 15" fill="none" xmlns="http://www.w3.org/2000/svg">
<path d="M34.7513 0.00732743C33.3812 0.00732743 32.0938 0.541421 31.1257 1.51185C30.1594 2.48051 29.6282 3.76776 29.6309 5.13498C29.6309 7.96008 31.9277 10.2582 34.7513 10.2582H36.2034V7.54329H34.7513C33.4239 7.54329 32.3443 6.46311 32.3443 5.13498C32.3443 3.80686 33.4239 2.72667 34.7513 2.72667C35.3543 2.72667 35.9316 2.95195 36.3771 3.36074C36.8069 3.75576 37.1449 4.28452 37.1449 4.86749V14.6794H39.8583V5.13498C39.8583 2.30766 37.5672 0.00732743 34.7513 0.00732743Z" fill="#1E1E1E"/>
<path d="M23.7512 0.00732743H23.7503C20.8253 0.00732743 18.4454 2.38716 18.4454 5.3122C18.4454 8.23723 20.8253 10.6171 23.7503 10.6171C26.6753 10.6171 29.0552 8.23723 29.0552 5.31128C29.0501 2.39176 26.6707 0.0123841 23.7512 0.00732743ZM26.2418 5.3122C26.2418 6.68622 25.1243 7.80374 23.7503 7.80374C22.3763 7.80374 21.2587 6.68622 21.2587 5.3122C21.2587 3.93817 22.3763 2.82066 23.7503 2.82066C25.1243 2.82066 26.2418 3.93817 26.2418 5.3122Z" fill="#1E1E1E"/>
<path d="M11.2311 4.82318C11.2427 4.50991 11.2694 4.20598 11.3289 3.8976L11.3303 3.89137C11.4059 3.52781 11.5211 3.17804 11.6722 2.85097C11.9871 2.18126 12.4518 1.5912 13.0175 1.1422C13.572 0.704775 14.2212 0.37904 14.8958 0.199263C15.2267 0.10715 15.5691 0.0479657 15.9146 0.0230461C16.6786 -0.031688 17.4342 0.0537506 18.1537 0.322971C18.42 0.42265 18.686 0.549027 18.9346 0.693205L19.3557 0.937951L18.0051 3.28751L17.5836 3.05256C17.2914 2.88969 16.9757 2.79001 16.6453 2.75619C16.2993 2.72504 15.9418 2.75619 15.6065 2.84786C15.289 2.93285 14.9861 3.08638 14.7295 3.29196C14.4894 3.48553 14.2955 3.73251 14.1701 4.00484C14.0345 4.29854 13.9838 4.62205 13.9838 4.94333V10.2586H11.2311V4.82318Z" fill="#1E1E1E"/>
<path d="M10.2739 5.00225C10.2406 3.65803 9.69276 2.40012 8.73149 1.46036C7.7711 0.521495 6.50331 0.00266977 5.16188 0H5.1184C2.31666 0 0.0245998 2.27242 0.000202081 5.08635C-0.011775 6.45683 0.509006 7.75034 1.46673 8.72881C2.42489 9.70772 3.70467 10.2532 5.07493 10.2653H6.63639V7.54654H5.15389C4.51112 7.55544 3.90384 7.30982 3.44428 6.85997C2.98427 6.40967 2.72698 5.8063 2.71988 5.16066C2.70525 3.82978 3.77076 2.73473 5.09622 2.71871H5.1601C6.48335 2.71871 7.56572 3.80175 7.57326 5.1304V9.87617C7.57326 11.1897 6.5042 12.2709 5.18982 12.2879C4.56036 12.283 3.9686 12.0329 3.52368 11.5826L3.17856 11.2337L3.17723 11.2351L1.79011 13.685C2.71589 14.53 3.90162 14.9972 5.1601 15.0066H5.2293C6.57828 14.9874 7.84385 14.4477 8.79315 13.4861C9.74155 12.525 10.2681 11.2502 10.2752 9.89396V5.0027L10.2739 5.00225Z" fill="#1E1E1E"/>
</svg>
